<svg class="third-arrow" fill="#bfc9e8" stroke="#bfc9e8" xmlns="http://www.w3.org/2000/svg" viewBox="0 0 348.62 344.61"><path d="M13.74,343.91c15.72-32.5,32.78-64.65,48.5-97.16,2.94-6.13,14-5.5,14.35,1.27,1.91,12.8,3.12,25.14,5,37.94,8.66-11,9.51-22.48,9.39-36.12.43-5.75,2-12.25,8.7-15,10.28-4.39,23.65,3.28,32.58,7.07C155,251.65,176.1,263.85,200.34,271c28.18,7.73,26.31-9.06,17.9-26.58-8.58-18.63-21.57-36.6-35.48-52.15-24.63-27-52.58-54.72-63.5-88.93-6.06-19,.85-50.2,28.71-53.23,34.14-4,76.49,12.44,101.85,31.41,14.25,9.24,98.49,82,98.24,33.08-.21-35.81-39.35-73.76-63.19-99.78-3.1-3.52,2.61-8.36,6.25-5.49,28.54,23,53.13,54.06,67,86.69,7.15,17.71,5.31,52.69-26,50-36.48-3.07-65-34.65-91.17-54.63-16.09-13-39.78-20.78-60-26.86C137.9,51.65,123.82,82.2,138.72,113c18.5,37.63,55.42,65.1,79.26,99.66,8.29,12.41,37.61,53.54,14.73,68.34-26.4,17-68.9-9-91.12-19.92,1.34.37-35.6-18.57-36.73-13.28s-.22,11.41-.65,17.17c-.93,10.95-4.72,20.05-11.9,27.95a196.33,196.33,0,0,1,36.12-3.7c6.46.17,8.34,8.42,3.72,12C99,324.33,59.34,334.81,22.71,352.25,17.38,355.32,10.71,349.49,13.74,343.91Zm63.71-38.55c-3.77.56-5.45-2-5.15-4.35a5.78,5.78,0,0,1-3.9-4.54l-3.33-22.26C55.15,293.9,45.15,313,35.23,332.73c23-9.7,46.87-17.82,68.27-29.56C95.24,303.83,86.34,304.6,77.45,305.36Z" transform="translate(-12.98 -8.49)"/></svg>