<svg xmlns="http://www.w3.org/2000/svg" width="48.121" height="45.509" viewBox="0 0 48.121 45.509">
  <defs>
    <style>
      .cls-1 {
        fill: #03179e;
      }
    </style>
  </defs>
  <path id="facebook_icon" data-name="facebook icon" class="cls-1" d="M48.683,23.456C48.683,10.809,37.914.562,24.623.562S.563,10.809.563,23.456c0,11.426,8.8,20.9,20.3,22.616v-16H14.751V23.456h6.112V18.412c0-5.737,3.59-8.906,9.088-8.906a38.861,38.861,0,0,1,5.386.447v5.631H32.3c-2.988,0-3.92,1.765-3.92,3.575v4.3h6.673l-1.067,6.618H28.382v16C39.885,44.353,48.683,34.882,48.683,23.456Z" transform="translate(-0.563 -0.563)"/>
</svg>
