<svg id="Group_1" data-name="Group 1" xmlns="http://www.w3.org/2000/svg" width="643.16" height="528" viewBox="0 0 643.16 528">
  <defs>
    <style>
      .cls-1 {
        fill: #e6e6e6;
      }

      .cls-2 {
        fill: #f2f2f2;
      }

      .cls-3 {
        fill: #ccc;
      }

      .cls-4 {
        fill: #3f3d56;
      }

      .cls-5 {
        fill: #ffb8b8;
      }

      .cls-6 {
        fill: #001bce;
      }

      .cls-7 {
        fill: #2f2e41;
      }
    </style>
  </defs>
  <path id="Path_4" data-name="Path 4" class="cls-1" d="M801.051,620.677a31.517,31.517,0,0,1-30.434-5.361c-10.66-8.947-14-23.687-16.721-37.336l-8.043-40.37,16.839,11.6c12.11,8.339,24.493,16.944,32.878,29.023s12.045,28.566,5.308,41.635" transform="translate(-628.648 -186)"/>
  <path id="Path_5" data-name="Path 5" class="cls-2" d="M772.082,669.554c1.7-12.415,3.457-24.99,2.261-37.538-1.062-11.144-4.462-22.029-11.383-30.953a51.494,51.494,0,0,0-13.211-11.971c-1.321-.834-2.537,1.26-1.222,2.09a48.951,48.951,0,0,1,19.363,23.363c4.216,10.722,4.893,22.411,4.166,33.8-.439,6.888-1.37,13.731-2.309,20.565a1.254,1.254,0,0,0,.845,1.489,1.218,1.218,0,0,0,1.489-.845Z" transform="translate(-601.119 -186)"/>
  <path id="Path_6" data-name="Path 6" class="cls-1" d="M836.408,647.585a23.2,23.2,0,0,1-20.215,10.433c-10.233-.486-18.764-7.628-26.444-14.408l-22.715-20.055,15.034-.719c10.811-.517,21.9-1,32.2,2.334s19.794,11.358,21.677,22.016" transform="translate(-681.861 -186.001)"/>
  <path id="Path_7" data-name="Path 7" class="cls-2" d="M795.954,676.69c-8.2-14.516-17.719-30.648-34.722-35.8a38.746,38.746,0,0,0-14.6-1.508c-1.551.134-1.163,2.524.384,2.391a36,36,0,0,1,23.306,6.166c6.572,4.473,11.688,10.692,16.019,17.286,2.653,4.039,5.029,8.25,7.405,12.456.76,1.344,2.979.374,2.211-.986Z" transform="translate(-620.173 -186)"/>
  <path id="Path_8" data-name="Path 8" class="cls-1" d="M441.369,574.714a62.116,62.116,0,0,0,59.982-10.566c21.009-17.633,27.6-46.684,32.955-73.584L550.159,411,516.97,433.853c-23.867,16.434-48.273,33.4-64.8,57.2s-23.739,56.3-10.461,82.056" transform="translate(-63.395 -186)"/>
  <path id="Path_9" data-name="Path 9" class="cls-2" d="M498.464,671.043c-3.359-24.468-6.813-49.251-4.457-73.981,2.093-21.963,8.793-43.415,22.435-61a101.483,101.483,0,0,1,26.037-23.594c2.6-1.643,5,2.483,2.408,4.119a96.477,96.477,0,0,0-38.162,46.045c-8.308,21.132-9.643,44.168-8.211,66.616.866,13.575,2.7,27.062,4.55,40.531a2.472,2.472,0,0,1-1.666,2.934,2.4,2.4,0,0,1-2.934-1.666Z" transform="translate(-117.654 -186)"/>
  <path id="Path_10" data-name="Path 10" class="cls-1" d="M371.689,627.745a45.725,45.725,0,0,0,39.841,20.563c20.168-.957,36.982-15.033,52.117-28.4l44.768-39.527-29.629-1.418c-21.307-1.02-43.164-1.971-63.459,4.6s-39.011,22.384-42.722,43.391" transform="translate(41.477 -186)"/>
  <path id="Path_11" data-name="Path 11" class="cls-2" d="M451.416,685.108c16.168-28.609,34.922-60.4,68.431-70.566a76.362,76.362,0,0,1,28.783-2.972c3.056.264,2.293,4.974-.757,4.711a70.942,70.942,0,0,0-45.934,12.152c-12.952,8.816-23.036,21.072-31.571,34.069-5.228,7.961-9.911,16.26-14.595,24.548-1.5,2.649-5.872.737-4.358-1.943Z" transform="translate(-80.098 -186)"/>
  <path id="Path_12" data-name="Path 12" class="cls-3" d="M282.392,297.794,421.6,268.628l1.809-.378a5,5,0,0,1,5.5,7.139L373.046,387.161a5,5,0,0,1-8.114,1.18l-38.1-40.655a2.91,2.91,0,0,0-2.133-.947,3.011,3.011,0,0,0-2.689,1.542l-7.94,14.479a4.886,4.886,0,0,1-5.486,2.475l-.039-.009a4.893,4.893,0,0,1-3.849-4.67l-1.374-33.54a3.059,3.059,0,0,0-.3-1.207,3.254,3.254,0,0,0-.783-.978l-22.011-18.289a5.006,5.006,0,0,1,2.164-8.748Zm-.892,7.212,22.011,18.288a4.936,4.936,0,0,1,.774.791l117.549-52.471a1.745,1.745,0,0,1,.323-.111,2,2,0,0,1,1.648,3.575l-96.812,70.234a4.8,4.8,0,0,1,1.3,1l38.1,40.655a3,3,0,0,0,4.869-.708l55.866-111.771a3.008,3.008,0,0,0-3.3-4.279l-1.852.389L282.807,299.755a3.007,3.007,0,0,0-1.308,5.251Z" transform="translate(213.717 -186)"/>
  <path id="Path_13" data-name="Path 13" class="cls-4" d="M282.392,297.794,421.6,268.628l1.809-.378a5,5,0,0,1,5.5,7.139L373.046,387.161a5,5,0,0,1-8.114,1.18l-38.1-40.655a2.91,2.91,0,0,0-2.133-.947,3.011,3.011,0,0,0-2.689,1.542l-7.94,14.479a4.886,4.886,0,0,1-5.486,2.475l-.039-.009a4.893,4.893,0,0,1-3.849-4.67l-1.374-33.54a3.059,3.059,0,0,0-.3-1.207,3.254,3.254,0,0,0-.783-.978l-22.011-18.289a5.006,5.006,0,0,1,2.164-8.748Zm-.892,7.212,22.011,18.289a4.933,4.933,0,0,1,.774.791,4.653,4.653,0,0,1,.527.838,4.794,4.794,0,0,1,.357.953l0,.01a4.731,4.731,0,0,1,.151,1.05l1.374,33.54a2.9,2.9,0,0,0,2.306,2.8l.02,0a2.911,2.911,0,0,0,3.3-1.475l7.942-14.489a4.989,4.989,0,0,1,4.115-2.581l.01,0c.114,0,.228-.01.34,0a4.866,4.866,0,0,1,2.269.578,4.8,4.8,0,0,1,1.3,1l38.1,40.655a3,3,0,0,0,4.869-.708l55.866-111.771a3.008,3.008,0,0,0-3.3-4.279l-1.852.389L282.807,299.755a3.007,3.007,0,0,0-1.308,5.251Z" transform="translate(213.717 -186)"/>
  <path id="Path_14" data-name="Path 14" class="cls-4" d="M283.217,324.282l.815,1.826.512-.222,0-.01L402,273.456,303.76,344.739l-.01,0-.26.2,1.17,1.62,1.708-1.242,96.812-70.234a2,2,0,0,0-1.648-3.575,1.744,1.744,0,0,0-.323.111L283.661,324.085Z" transform="translate(234.34 -186)"/>
  <path id="Path_15" data-name="Path 15" class="cls-5" d="M779.529,464.02l-5.08,49.67-.1,1.02-1.51,14.73-12.4,121.28v.02l-2.41,23.53a28.068,28.068,0,0,1,2.49,4.01,28.883,28.883,0,0,1-.84,27.65q-9.075-2.28-17.9-5.2a269.637,269.637,0,0,1-35.52-14.56,28.914,28.914,0,0,1,9.71-16.85l12.45-149.59,1.09-13.12,3.55-42.59Z" transform="translate(-564.207 -186)"/>
  <circle id="Ellipse_1" data-name="Ellipse 1" class="cls-5" cx="65.748" cy="65.748" r="65.748" transform="translate(226.203 189.227) rotate(-135)"/>
  <path id="Path_16" data-name="Path 16" class="cls-6" d="M742.816,553.61c-.01.13-.021.26-.03.38a12.066,12.066,0,0,1-9.43,10.76l-98.119,21.43a12.151,12.151,0,0,1-2.59.28,12.027,12.027,0,0,1-11.59-8.83c-.21-.78-.44-1.58-.69-2.41v-.01c-3.31-11.24-9.22-26.54-17.67-45.77q-2.865-6.525-6.13-13.67c-.4-.88-.81-1.77-1.21-2.66q-6.735-14.625-15.03-31.66a78.806,78.806,0,0,1-6.09-17.43,79.689,79.689,0,0,1,4.03-47.63,78.687,78.687,0,0,1,4.35-8.95,80.056,80.056,0,0,1,63.34-40.31c2.07-.17,4.13-.25,6.2-.25a80.5,80.5,0,0,1,55.49,22.52,78.571,78.571,0,0,1,19.51,30.58c.26.73.5,1.47.74,2.21a297.552,297.552,0,0,1,8.88,35.72c1.33,7.17,2.41,14.24,3.28,21.13a435.962,435.962,0,0,1,2.76,74.57Z" transform="translate(-394.063 -186)"/>
  <path id="Path_17" data-name="Path 17" class="cls-7" d="M744.008,679.25a266.038,266.038,0,0,1-196.49,26.68q-9.075-2.28-17.9-5.2a447.4,447.4,0,0,1,18.659-49.99v-.02c12.021-26.95,23.06-43.44,28.44-50.72a9.352,9.352,0,0,0,1.33-8.49l-1.67-5.01a12.021,12.021,0,0,1,1.97-11.28v-.01c.11-.14.23-.28.35-.42,43.71-49.8,119.91-22.63,120.68-22.35l.38.14.24.33c.26.36.52.71.77,1.08C721.427,582.94,735.157,627.44,744.008,679.25Z" transform="translate(-352.045 -186)"/>
  <path id="Path_18" data-name="Path 18" class="cls-5" d="M557.7,358.619a28.174,28.174,0,0,0-.641,4.39L442.063,429.348l-27.95-16.09-29.8,39.008,46.713,33.294a21.415,21.415,0,0,0,25.693-.626L575.3,391.388a28.1,28.1,0,1,0-17.6-32.769Z" transform="translate(-75.889 -186)"/>
  <path id="Path_19" data-name="Path 19" class="cls-6" d="M669.217,428.33v.01a12,12,0,0,1-2.08,4.15l-19.62,25.42-9.35,12.13-8.2,10.62a12.043,12.043,0,0,1-18.21,1l-29.78-30.92-12.29-12.77a33.455,33.455,0,0,1,41.02-52.86l7.68,4.29,45.09,25.22a12.07,12.07,0,0,1,5.74,13.71Z" transform="translate(-304.805 -186)"/>
  <path id="Path_20" data-name="Path 20" class="cls-6" d="M772.513,444.27l-1.88,60.05-.01.38a12.042,12.042,0,0,1-14.18,11.48l-8.14-1.47-2.08-.38h-.01l-6.76-1.22-35.99-6.5-6.89-1.24a12.057,12.057,0,0,1-9.27-15.71l19.41-57.47a33.45,33.45,0,0,1,65.8,12.08Z" transform="translate(-538.161 -186)"/>
  <path id="Path_21" data-name="Path 21" class="cls-7" d="M852.978,267.124c16.9,11.566,39.087,23.454,56.346,11.138,11.333-8.087,14.9-23.063,10.308-36.2-8.264-23.633-30.97-34.038-52.683-42.013-28.226-10.368-58.961-18.616-88.1-11.191s-54.891,35.637-49.631,65.244c4.23,23.809,26.689,43.62,23.5,67.591-3.209,24.125-30.339,36.823-54.292,41.135s-50.755,5.7-67.968,22.9c-21.959,21.947-16.475,61.176,4.187,84.348s51.843,33.676,82.057,40.816c40.032,9.461,83.329,14.433,121.35-1.268s67.607-57.966,56.593-97.6c-4.652-16.741-15.612-30.889-26.2-44.663s-21.316-28.177-25.357-45.076c-3.367-14.082-.875-30.433,8.464-41a11.878,11.878,0,0,0,1.591-13.884Z" transform="translate(-616.366 -186)"/>
</svg>
