<svg xmlns="http://www.w3.org/2000/svg" width="459.234" height="78.274" viewBox="0 0 459.234 78.274">
  <defs>
    <style>
      .cls-1 {
        fill: #fcd200;
      }
    </style>
  </defs>
  <g id="stars" transform="translate(-566.063 -1504.875)">
    <path id="Icon_ionic-ios-star" data-name="Icon ionic-ios-star" class="cls-1" d="M83.346,30.47H55.668l-8.411-25.1a3.048,3.048,0,0,0-5.72,0l-8.411,25.1H5.261A3.019,3.019,0,0,0,2.25,33.48a2.212,2.212,0,0,0,.056.508,2.893,2.893,0,0,0,1.261,2.126L26.316,52.146,17.585,77.528a3.019,3.019,0,0,0,1.035,3.387,2.912,2.912,0,0,0,1.693.734,3.689,3.689,0,0,0,1.882-.677L44.4,65.148,66.6,80.972a3.526,3.526,0,0,0,1.882.677,2.7,2.7,0,0,0,1.675-.734,2.982,2.982,0,0,0,1.035-3.387L62.461,52.146l22.56-16.182.546-.47a3.156,3.156,0,0,0,.978-2.013A3.186,3.186,0,0,0,83.346,30.47Z" transform="translate(563.813 1501.5)"/>
    <path id="Icon_ionic-ios-star-2" data-name="Icon ionic-ios-star" class="cls-1" d="M83.346,30.47H55.668l-8.411-25.1a3.048,3.048,0,0,0-5.72,0l-8.411,25.1H5.261A3.019,3.019,0,0,0,2.25,33.48a2.212,2.212,0,0,0,.056.508,2.893,2.893,0,0,0,1.261,2.126L26.316,52.146,17.585,77.528a3.019,3.019,0,0,0,1.035,3.387,2.912,2.912,0,0,0,1.693.734,3.689,3.689,0,0,0,1.882-.677L44.4,65.148,66.6,80.972a3.526,3.526,0,0,0,1.882.677,2.7,2.7,0,0,0,1.675-.734,2.982,2.982,0,0,0,1.035-3.387L62.461,52.146l22.56-16.182.546-.47a3.156,3.156,0,0,0,.978-2.013A3.186,3.186,0,0,0,83.346,30.47Z" transform="translate(751.282 1501.5)"/>
    <path id="Icon_ionic-ios-star-3" data-name="Icon ionic-ios-star" class="cls-1" d="M83.346,30.47H55.668l-8.411-25.1a3.048,3.048,0,0,0-5.72,0l-8.411,25.1H5.261A3.019,3.019,0,0,0,2.25,33.48a2.212,2.212,0,0,0,.056.508,2.893,2.893,0,0,0,1.261,2.126L26.316,52.146,17.585,77.528a3.019,3.019,0,0,0,1.035,3.387,2.912,2.912,0,0,0,1.693.734,3.689,3.689,0,0,0,1.882-.677L44.4,65.148,66.6,80.972a3.526,3.526,0,0,0,1.882.677,2.7,2.7,0,0,0,1.675-.734,2.982,2.982,0,0,0,1.035-3.387L62.461,52.146l22.56-16.182.546-.47a3.156,3.156,0,0,0,.978-2.013A3.186,3.186,0,0,0,83.346,30.47Z" transform="translate(657.547 1501.5)"/>
    <path id="Icon_ionic-ios-star-4" data-name="Icon ionic-ios-star" class="cls-1" d="M83.346,30.47H55.668l-8.411-25.1a3.048,3.048,0,0,0-5.72,0l-8.411,25.1H5.261A3.019,3.019,0,0,0,2.25,33.48a2.212,2.212,0,0,0,.056.508,2.893,2.893,0,0,0,1.261,2.126L26.316,52.146,17.585,77.528a3.019,3.019,0,0,0,1.035,3.387,2.912,2.912,0,0,0,1.693.734,3.689,3.689,0,0,0,1.882-.677L44.4,65.148,66.6,80.972a3.526,3.526,0,0,0,1.882.677,2.7,2.7,0,0,0,1.675-.734,2.982,2.982,0,0,0,1.035-3.387L62.461,52.146l22.56-16.182.546-.47a3.156,3.156,0,0,0,.978-2.013A3.186,3.186,0,0,0,83.346,30.47Z" transform="translate(845.017 1501.5)"/>
    <path id="Icon_ionic-ios-star-5" data-name="Icon ionic-ios-star" class="cls-1" d="M83.346,30.47H55.668l-8.411-25.1a3.048,3.048,0,0,0-5.72,0l-8.411,25.1H5.261A3.019,3.019,0,0,0,2.25,33.48a2.212,2.212,0,0,0,.056.508,2.893,2.893,0,0,0,1.261,2.126L26.316,52.146,17.585,77.528a3.019,3.019,0,0,0,1.035,3.387,2.912,2.912,0,0,0,1.693.734,3.689,3.689,0,0,0,1.882-.677L44.4,65.148,66.6,80.972a3.526,3.526,0,0,0,1.882.677,2.7,2.7,0,0,0,1.675-.734,2.982,2.982,0,0,0,1.035-3.387L62.461,52.146l22.56-16.182.546-.47a3.156,3.156,0,0,0,.978-2.013A3.186,3.186,0,0,0,83.346,30.47Z" transform="translate(938.752 1501.5)"/>
  </g>
</svg>
