<svg class="first-arrow" fill="#bfc9e8" stroke="#bfc9e8" xmlns="http://www.w3.org/2000/svg" viewBox="0 0 352.1 353.86"><path d="M.55,342c4.62-14.55,9.9-28.52,15.77-42.54,4.8-12.64,9.36-27.82,17.3-38.83,4.21-6.16,14.81-1.37,13.14,6.49a.61.61,0,0,1-.53.69,30.84,30.84,0,0,0,4.62,4.7c.59-.05,1.83.47,2.43.42a16.23,16.23,0,0,1,3.84,2.85c30.27-21.41,60.65-41.55,88.26-65.93a164.94,164.94,0,0,0,22.86-23.94C136.16,168.34,98.16,138.49,101,97.79c4-53.64,59.34-29.88,79.64-4.16,24.92,30.42,26.33,58.53,8.19,88.45,21.31,10.86,44.64,17.69,66.43,14.38,52.53-6.79,56.69-58.52,39.13-99.89-14.81,7.79-32.4,11.34-48.15,9-28.42-3.78-57.53-47.3-40.47-75.84,17.13-27.9,71.41,16.5,83,31.47A114.86,114.86,0,0,1,298.32,75c.54-.69,1.13-.74,1.66-1.44,34.27-38.33,35.66-47.87,44.16-69.51,2.34-6.76,8.62-4.7,7.9,3.23-4.13,13.89-6.19,16-9,22.34S336.54,43.4,325.8,62.21c-5.73,9.67-11.37,19-20.32,25.63,16.27,33.79,20,74.52-7.21,102.71-32.7,33.84-80.65,19-116.88,1.84-.54.69-.54.69-1.07,1.39C151.11,233.06,107,259.61,67.66,286.36c3.37,4.18,6.8,9,10.18,13.18a9.17,9.17,0,0,1-.25,10.29C59.17,330.15,36.19,346.4,10,353.32,3.62,355.83-1.77,349.27.55,342Zm183.7-187.84c10.79-25.39-7.44-48.09-24.48-64.48-22.32-21.68-54.3-12.3-44.42,23.37,5.26,18.12,22,31.33,35.57,42.27a175.27,175.27,0,0,0,24.21,16.37A97,97,0,0,0,184.25,154.16ZM286,79.27h0c-9.88-16.41-22.9-28-38.65-36.85-6.92-3.86-14.38-7-22.26-8.21-20.72-4.5-7.47,28.93-2.5,37.46C237.27,94.69,265.52,90.15,286,79.27ZM60.38,299.77c-.06-.64-.65-.58-.71-1.22-1.78.17-3.67-.94-5.09-3.38a138.1,138.1,0,0,0-7.76-12.76c-1.36-1.8-5.26-5.29-4.08-5.4a1.32,1.32,0,0,1-1.3-1.16c-2.91,7.33-7,14.77-9.9,22.1-3.91,9.34-7.76,19.33-11.62,29.31C34.31,321.44,48.35,311.79,60.38,299.77Z"/></svg>