<svg xmlns="http://www.w3.org/2000/svg" width="641.109" height="436.17" viewBox="0 0 641.109 436.17">
  <defs>
    <style>
      .cls-1 {
        fill: #f2f2f2;
      }

      .cls-2 {
        fill: #fff;
      }

      .cls-3 {
        fill: #2f2e41;
      }

      .cls-4 {
        fill: #a0616a;
      }

      .cls-5 {
        fill: #ccc;
      }

      .cls-6 {
        fill: #3f3d56;
      }

      .cls-7 {
        fill: #001bce;
      }

      .cls-8 {
        fill: #e6e6e6;
      }

      .cls-9 {
        fill: #ffb8b8;
      }

      .cls-10 {
        opacity: 0.2;
      }
    </style>
  </defs>
  <g id="Group_3" data-name="Group 3" transform="translate(0 0)">
    <path id="Path_22" data-name="Path 22" class="cls-1" d="M245.6,241.017H412.134a8.535,8.535,0,0,1,8.526,8.526V496.49a8.535,8.535,0,0,1-8.526,8.526H245.6a8.536,8.536,0,0,1-8.526-8.526V249.543A8.536,8.536,0,0,1,245.6,241.017Z" transform="translate(-237.072 -207.516)"/>
    <path id="Path_23" data-name="Path 23" class="cls-2" d="M248.484,248.038h162.4a4.4,4.4,0,0,1,4.392,4.392V495.243a4.4,4.4,0,0,1-4.392,4.392h-162.4a4.4,4.4,0,0,1-4.392-4.392V252.429A4.4,4.4,0,0,1,248.484,248.038Z" transform="translate(-237.892 -208.335)"/>
    <path id="Path_24" data-name="Path 24" class="cls-3" d="M368.32,345c0,15.61-14.434,13.249-32.238,13.249S303.843,360.606,303.843,345s7.05-43.279,32.238-43.279C362.137,301.717,368.32,329.386,368.32,345Z" transform="translate(-244.868 -214.603)"/>
    <path id="Path_25" data-name="Path 25" class="cls-4" d="M411.935,488.208a9.488,9.488,0,0,0-5.523-13.46l-36.934-78.131-16.895,11.847L394.2,481.538a9.54,9.54,0,0,0,17.734,6.669Z" transform="translate(-250.559 -225.683)"/>
    <path id="Path_26" data-name="Path 26" class="cls-5" d="M378.887,401.079l-2.111-3.3-1.077-1.7-8.294-13a11.813,11.813,0,1,0-21.6,9.583l1.9,6.774,3.877,13.849a4.152,4.152,0,0,0,1.431,2.155,3.863,3.863,0,0,0,.866.548,4.233,4.233,0,0,0,3.48.062c.018-.009.044-.018.062-.027l10.034-4.487.018-.009,7.658-3.427,1.908-.848a4.157,4.157,0,0,0,1.431-1.051,4.107,4.107,0,0,0,.9-1.616,4.2,4.2,0,0,0-.486-3.506Z" transform="translate(-249.649 -223.282)"/>
    <path id="Path_27" data-name="Path 27" class="cls-3" d="M322.386,529.535a4.258,4.258,0,0,0-7.251-.071,3.461,3.461,0,0,0-.4.813l-.5,1.387h9.433Z" transform="translate(-246.081 -240.961)"/>
    <circle id="Ellipse_2" data-name="Ellipse 2" class="cls-4" cx="21.693" cy="21.693" r="21.693" transform="translate(69.317 99.359)"/>
    <path id="Path_28" data-name="Path 28" class="cls-6" d="M374.237,408.083c-.053-.777-.124-1.546-.212-2.3a48.222,48.222,0,0,0-1.7-8.426c-.168-.6-.353-1.184-.556-1.758a47.087,47.087,0,0,0-13.037-19.82,12.872,12.872,0,0,0-8.594-3.286h-30.56a12.881,12.881,0,0,0-12.692,15.068c-.009.009-.009.009,0,.018a12.8,12.8,0,0,0,1.175,3.551L309.3,393.6l8.285,16.57,10.307,20.615.6,1.2,38.412,10.564.159-.362c.141-.318.292-.645.424-.963.212-.477.415-.954.618-1.422a75.29,75.29,0,0,0,6.147-24.563v-.009a56.616,56.616,0,0,0-.018-7.145Z" transform="translate(-245.202 -222.866)"/>
    <path id="Path_29" data-name="Path 29" class="cls-3" d="M368.069,447.047a4.128,4.128,0,0,0-.609-1.254,16.512,16.512,0,0,0-3.507-3.462l-.009-.009c-4.655-3.533-13.893-7.649-31.744-7.755h-.027a4.263,4.263,0,0,0-3.878,2.5l-.442.963-2.844,6.253a3.3,3.3,0,0,1-1.1,1.334c-4.513,3.2-26.374,21.127-13.54,60.494,1.254,3.842,2.544,8.038,3.851,12.507q.318,1.086.636,2.2h38.474l-.822-6.183a3.272,3.272,0,0,1,.062-1.21l15.483-63.894.071-.274a4.254,4.254,0,0,0-.053-2.208Z" transform="translate(-245.164 -230.113)"/>
    <path id="Path_30" data-name="Path 30" class="cls-6" d="M389.544,367.717h16.782a2.65,2.65,0,0,1,2.65,2.65v4.416a.886.886,0,0,1,.883.883v1.767a.886.886,0,0,1-.883.883v1.766a.886.886,0,0,1,.883.883v1.766a.886.886,0,0,1-.883.883v23.848a2.65,2.65,0,0,1-2.65,2.65H389.544a2.65,2.65,0,0,1-2.65-2.65v-37.1a2.65,2.65,0,0,1,2.65-2.65Z" transform="translate(-254.564 -222.308)"/>
    <path id="Path_31" data-name="Path 31" class="cls-7" d="M388.66,407.463v-37.1a2.65,2.65,0,0,1,2.65-2.65h-1.766a2.65,2.65,0,0,0-2.65,2.65v37.1a2.65,2.65,0,0,0,2.65,2.65h1.767a2.65,2.65,0,0,1-2.65-2.65Z" transform="translate(-254.564 -222.308)"/>
    <circle id="Ellipse_3" data-name="Ellipse 3" class="cls-2" cx="3.533" cy="3.533" r="3.533" transform="translate(139.396 154.241)"/>
    <path id="Path_32" data-name="Path 32" class="cls-4" d="M385.26,395.23a9.292,9.292,0,0,0-.763,1.249l-43.49,5.224-6.4-8.505-14.1,7.974,9.859,16.157a7.066,7.066,0,0,0,7.877,3.14l48.1-13.015a9.272,9.272,0,1,0-1.094-12.224Z" transform="translate(-246.814 -225.079)"/>
    <path id="Path_33" data-name="Path 33" class="cls-6" d="M338.96,394.062l-12.189-15.792a11.038,11.038,0,0,0-19.952,9.309c-.009.009-.009.009,0,.018a10.032,10.032,0,0,0,.653,1.4l1.758,4.619,5.343,14.088a3.955,3.955,0,0,0,2.359,2.323,3.577,3.577,0,0,0,.583.159,3.932,3.932,0,0,0,2.712-.424l3.868-2.164,13.655-7.631a3.986,3.986,0,0,0,1.21-5.9Z" transform="translate(-245.131 -222.88)"/>
    <path id="Path_34" data-name="Path 34" class="cls-3" d="M311.843,340.981h8.58l3.785-13.045.757,13.045h4.1l2.208-7.609.442,7.609h30.472c0-15.61-10.281-28.264-22.964-28.264h-4.416C322.124,312.717,311.843,325.371,311.843,340.981Z" transform="translate(-245.802 -215.887)"/>
    <path id="Path_35" data-name="Path 35" class="cls-5" d="M571.823,311.6H392a8.536,8.536,0,0,1-8.526-8.526v-91.46A8.536,8.536,0,0,1,392,203.087h179.82a8.536,8.536,0,0,1,8.526,8.526v91.46a8.535,8.535,0,0,1-8.526,8.526Z" transform="translate(-254.166 -203.087)"/>
    <path id="Path_36" data-name="Path 36" class="cls-2" d="M570.576,306.218H394.89a4.4,4.4,0,0,1-4.392-4.392V214.5a4.4,4.4,0,0,1,4.392-4.392H570.576a4.4,4.4,0,0,1,4.392,4.392v87.326A4.4,4.4,0,0,1,570.576,306.218Z" transform="translate(-254.985 -203.907)"/>
    <path id="Path_37" data-name="Path 37" class="cls-5" d="M404.9,342.238a3.314,3.314,0,0,1-1.27-.257,3.214,3.214,0,0,1-2.015-3.016V322.155l25.331-.64L407.19,341.273A3.22,3.22,0,0,1,404.9,342.238Z" transform="translate(-256.283 -216.914)"/>
    <path id="Path_38" data-name="Path 38" class="cls-5" d="M557.866,258.988H468.991a4.134,4.134,0,1,1,0-8.268h88.876a4.134,4.134,0,0,1,0,8.268Z" transform="translate(-263.667 -208.649)"/>
    <path id="Path_39" data-name="Path 39" class="cls-5" d="M528.93,239.1h-59.94a4.134,4.134,0,1,1,0-8.268h59.94a4.134,4.134,0,1,1,0,8.268Z" transform="translate(-263.667 -206.326)"/>
    <circle id="Ellipse_4" data-name="Ellipse 4" class="cls-7" cx="12.918" cy="12.918" r="12.918" transform="translate(155.614 24.504)"/>
    <circle id="Ellipse_5" data-name="Ellipse 5" class="cls-8" cx="4.134" cy="4.134" r="4.134" transform="translate(262.677 75.74)"/>
    <circle id="Ellipse_6" data-name="Ellipse 6" class="cls-8" cx="4.134" cy="4.134" r="4.134" transform="translate(277.145 75.74)"/>
    <circle id="Ellipse_7" data-name="Ellipse 7" class="cls-8" cx="4.134" cy="4.134" r="4.134" transform="translate(291.613 75.74)"/>
    <path id="Path_40" data-name="Path 40" class="cls-1" d="M763.6,398.017H930.134a8.535,8.535,0,0,1,8.526,8.526V653.49a8.535,8.535,0,0,1-8.526,8.526H763.6a8.536,8.536,0,0,1-8.526-8.526V406.543A8.536,8.536,0,0,1,763.6,398.017Z" transform="translate(-297.551 -225.846)"/>
    <path id="Path_41" data-name="Path 41" class="cls-2" d="M766.484,405.038h162.4a4.4,4.4,0,0,1,4.392,4.392V652.243a4.4,4.4,0,0,1-4.392,4.392h-162.4a4.4,4.4,0,0,1-4.392-4.392V409.429a4.4,4.4,0,0,1,4.392-4.392Z" transform="translate(-298.37 -226.666)"/>
    <path id="Path_42" data-name="Path 42" class="cls-5" d="M747.748,525.229H567.928A8.536,8.536,0,0,1,559.4,516.7v-91.46a8.536,8.536,0,0,1,8.526-8.526h179.82a8.536,8.536,0,0,1,8.526,8.526V516.7A8.536,8.536,0,0,1,747.748,525.229Z" transform="translate(-274.705 -228.029)"/>
    <path id="Path_43" data-name="Path 43" class="cls-2" d="M746.5,519.847H570.814a4.4,4.4,0,0,1-4.392-4.392V428.129a4.4,4.4,0,0,1,4.392-4.392H746.5a4.4,4.4,0,0,1,4.392,4.392v87.326A4.4,4.4,0,0,1,746.5,519.847Z" transform="translate(-275.525 -228.849)"/>
    <path id="Path_44" data-name="Path 44" class="cls-5" d="M756.173,554.9l-19.759-19.758,25.332.64v16.81a3.214,3.214,0,0,1-2.015,3.016,3.314,3.314,0,0,1-1.27.257A3.22,3.22,0,0,1,756.173,554.9Z" transform="translate(-295.372 -241.856)"/>
    <path id="Path_45" data-name="Path 45" class="cls-5" d="M733.791,472.618H644.916a4.134,4.134,0,0,1,0-8.268h88.876a4.134,4.134,0,0,1,0,8.268Z" transform="translate(-284.207 -233.591)"/>
    <path id="Path_46" data-name="Path 46" class="cls-5" d="M704.855,452.727h-59.94a4.134,4.134,0,1,1,0-8.268h59.94a4.134,4.134,0,1,1,0,8.268Z" transform="translate(-284.207 -231.268)"/>
    <circle id="Ellipse_8" data-name="Ellipse 8" class="cls-7" cx="12.918" cy="12.918" r="12.918" transform="translate(310.999 213.191)"/>
    <circle id="Ellipse_9" data-name="Ellipse 9" class="cls-8" cx="4.134" cy="4.134" r="4.134" transform="translate(418.062 264.429)"/>
    <circle id="Ellipse_10" data-name="Ellipse 10" class="cls-8" cx="4.134" cy="4.134" r="4.134" transform="translate(432.53 264.429)"/>
    <circle id="Ellipse_11" data-name="Ellipse 11" class="cls-8" cx="4.134" cy="4.134" r="4.134" transform="translate(446.998 264.429)"/>
    <path id="Path_47" data-name="Path 47" class="cls-9" d="M774.681,600.13a8.882,8.882,0,0,1,13.531-1.54l28.047-14.476-1.744,16.309L788.15,611.668a8.93,8.93,0,0,1-13.469-11.539Z" transform="translate(-299.664 -247.574)"/>
    <path id="Path_48" data-name="Path 48" class="cls-6" d="M864.9,519.8a12.807,12.807,0,0,0-15.324-.345,13.266,13.266,0,0,0-2.694,2.579L822.261,567.7l-22.726,17.17a3.963,3.963,0,0,0-1.484,2.305,3.914,3.914,0,0,0,.079,2.04l2.235,7.207a4.009,4.009,0,0,0,1.343,1.961,4.52,4.52,0,0,0,.795.477.533.533,0,0,0,.106.044,3.948,3.948,0,0,0,3.135-.009l26.639-11.553.292-.133A40.921,40.921,0,0,0,853.1,567.3l14.008-29.562A12.818,12.818,0,0,0,864.9,519.8Z" transform="translate(-302.557 -239.747)"/>
    <circle id="Ellipse_12" data-name="Ellipse 12" class="cls-9" cx="21.693" cy="21.693" r="21.693" transform="translate(543.475 219.834)"/>
    <path id="Path_49" data-name="Path 49" class="cls-3" d="M886.37,638.437l-.221-1.687-1.025-7.693-1.122-8.4-3.983.68-1.537.256-1.554.265-.512.088L836.9,628.659l-4.92-2.959-.106-.062.044.45.927,9.619,4.425,45.946h54.867Z" transform="translate(-306.518 -251.84)"/>
    <path id="Path_50" data-name="Path 50" class="cls-6" d="M901.439,537.207a30.608,30.608,0,0,0-10.378-20.35,28.882,28.882,0,0,0-20.889-7.207c-7.287.486-12.886,3.48-16.755,8.93a30.6,30.6,0,0,0-4.345,9.574c-4.4,15.828-9.036,39.013-12.56,58.188-1.979,10.705-3.6,20.165-4.655,26.391-.018.133-.035.256-.062.389-.407,2.429-.716,4.328-.919,5.591a3.96,3.96,0,0,0,1.846,4.028c.009.009.026.018.035.026A29.213,29.213,0,0,0,847.5,626.91c6.289,0,13.832-2.191,21.772-9.265a3.113,3.113,0,0,1,3.984-.168l.866.671,8.549,6.651a3.964,3.964,0,0,0,2.332.839,3.54,3.54,0,0,0,1.245-.168.466.466,0,0,0,.106-.027,3.954,3.954,0,0,0,2.579-2.676c.477-1.66,1.007-3.577,1.59-5.715.239-.892.486-1.828.742-2.8,1.122-4.293,2.367-9.274,3.586-14.7C899.108,580.6,903.153,556.25,901.439,537.207Z" transform="translate(-306.395 -238.874)"/>
    <path id="Path_51" data-name="Path 51" class="cls-9" d="M870.323,638.3a8.882,8.882,0,0,1,9.7-9.563l13.136-28.7,8.693,13.909-13.806,25.121a8.93,8.93,0,0,1-17.719-.768Z" transform="translate(-311.003 -249.432)"/>
    <path id="Path_52" data-name="Path 52" class="cls-6" d="M915.8,562.4l-7.225-31.912a12.833,12.833,0,0,0-11.429-12.683c-.45-.044-.91-.071-1.378-.071a12.832,12.832,0,0,0-12.8,12.886l8.815,51.131-.026.106L887.09,599.5l-2.588,9.8a1.453,1.453,0,0,0-.053.283,3.83,3.83,0,0,0,.309,2.429,3.913,3.913,0,0,0,1.325,1.572l5.008,3.462,1.192.83a3.937,3.937,0,0,0,2.261.707,4.151,4.151,0,0,0,.927-.106l.1-.026a3.9,3.9,0,0,0,1.042-.442,3.966,3.966,0,0,0,1.431-1.5l13.831-25.535A41.01,41.01,0,0,0,915.8,562.4Z" transform="translate(-312.484 -239.824)"/>
    <path id="Path_53" data-name="Path 53" class="cls-10" d="M647.426,353.651l7.949,33.563-11.482,28.264,7.949-27.381Z" transform="translate(-75.177 -41.29)"/>
    <path id="Path_54" data-name="Path 54" class="cls-3" d="M891.05,485.782a14.609,14.609,0,0,0,4.918-2.948c.631-.564,1.31-1.087,1.94-1.651,5.563-4.975,7.234-13.531,4.752-20.569S894,448.165,886.951,445.727s-14.871-2.105-22.033-.007c-7.714,2.26-15.441,7.35-17.273,15.178-.488,2.083-.506,4.395.912,6.152a3.89,3.89,0,0,0,1.62,1.188c2.5.958,3.893-1,5.759-1.829,2.565-1.142,5.721.091,7.506,2.258s2.446,5.045,2.72,7.839a20.723,20.723,0,0,0,.8,5.087,5.07,5.07,0,0,0,3.542,3.435c2.013.372,3.948-1.014,5.214-2.622s2.164-3.517,3.66-4.914,3.936-2.133,5.576-.909a6.127,6.127,0,0,1,1.369,1.644c2.513,3.861,2.208,3.693,4.721,7.554Z" transform="translate(-308.324 -231.217)"/>
    <path id="Path_55" data-name="Path 55" class="cls-6" d="M776.976,581.188l-15.3,6.886a2.65,2.65,0,0,0-1.329,3.5l1.812,4.027a.886.886,0,0,0-.443,1.168l.725,1.611a.886.886,0,0,0,1.168.443l.725,1.611a.886.886,0,0,0-.443,1.168l.725,1.611a.886.886,0,0,0,1.168.443l9.784,21.748a2.65,2.65,0,0,0,3.5,1.329l15.3-6.885a2.65,2.65,0,0,0,1.329-3.5l-15.22-33.83A2.65,2.65,0,0,0,776.976,581.188Z" transform="translate(-298.139 -247.205)"/>
    <path id="Path_56" data-name="Path 56" class="cls-7" d="M793.24,614.816l-2.155-4.8-5.653-12.56-4.964-11.032a2.542,2.542,0,0,0-3.356-1.281l-8.426,3.789-3.86,1.74a2.546,2.546,0,0,0-1.272,3.356l5.132,11.411,1.97,4.372,5.67,12.613a2.553,2.553,0,0,0,3.365,1.272l12.277-5.529A2.543,2.543,0,0,0,793.24,614.816Z" transform="translate(-298.515 -247.668)"/>
  </g>
</svg>
