<svg id="Warstwa_1" data-name="Warstwa 1" xmlns="http://www.w3.org/2000/svg" viewBox="0 0 311.5 263.27"><defs><style>.cls-1{fill:#bfc9e8;stroke:#bfc9e8;stroke-miterlimit:10;}</style></defs><path class="cls-1" d="M302.11,262.52a7.11,7.11,0,0,0,8.18-9.91c-19.16-42.8-40-84.63-68.54-122.48-4.45-5.26-14-4.39-14.34,2.45a148.16,148.16,0,0,0,6.4,46.56c-71.63-62.33-140-133.89-225-177.89-6-3.37-11.58,5.51-6,9.36C84.59,63.85,153.36,131.75,227.34,194.43c-14.47,1.54-28.93,3.09-43,4.17a7.48,7.48,0,0,0-3.48,13.79A352.46,352.46,0,0,0,302.11,262.52ZM244.19,206c7,1.06,12.62-7.83,5.3-13.87l-1-.87c-1.6-10.84-3.59-21.21-4.79-32.53,17.81,27.41,32.49,55.41,46,84.83-28.18-7.4-54.94-17.59-80.53-32.38,9.51-.87,19.41-2.22,29.45-2.66C241.46,209.27,243.54,207.81,244.19,206Z"/></svg>